<svg width="16" height="16" viewBox="0 0 16 16" fill="none" xmlns="http://www.w3.org/2000/svg">
<g clip-path="url(#clip0_36_268)">
<path d="M15.8317 15.0238L11.5999 10.792C12.5605 9.64924 13.1419 8.17719 13.1419 6.57093C13.1419 2.94776 10.1943 0 6.57093 0C2.94776 0.000714176 0 2.94831 0 6.57148C0 10.1947 2.94758 13.1424 6.57093 13.1424C8.17723 13.1424 9.64924 12.561 10.792 11.6004L15.0238 15.8323C15.1353 15.9437 15.2817 15.9994 15.4281 15.9994C15.5745 15.9994 15.7209 15.9437 15.8323 15.8323C16.0559 15.6087 16.0559 15.248 15.8323 15.0245L15.8317 15.0238ZM1.14301 6.57166C1.14301 3.57911 3.57845 1.14349 6.57119 1.14349C9.56393 1.14349 11.9994 3.57893 11.9994 6.57166C11.9994 9.5644 9.56393 11.9998 6.57119 11.9998C3.57845 11.9998 1.14301 9.5644 1.14301 6.57166Z" fill="black"/>
</g>
<defs>
<clipPath id="clip0_36_268">
<rect width="16" height="16" fill="white"/>
</clipPath>
</defs>
</svg>
