<svg width="40" height="41" viewBox="0 0 40 41" fill="none" xmlns="http://www.w3.org/2000/svg">
<g clip-path="url(#clip0_23_325)">
<mask id="mask0_23_325" style="mask-type:luminance" maskUnits="userSpaceOnUse" x="0" y="0" width="40" height="41">
<path d="M39.802 0.5H0.197998V40.5H39.802V0.5Z" fill="white"/>
</mask>
<g mask="url(#mask0_23_325)">
<path fill-rule="evenodd" clip-rule="evenodd" d="M2.98193 3.31178C0.197998 6.12356 0.197998 10.649 0.197998 19.7V21.3C0.197998 30.351 0.197998 34.8764 2.98193 37.6882C5.76588 40.5 10.2466 40.5 19.2079 40.5H20.7921C29.7534 40.5 34.2341 40.5 37.018 37.6882C39.802 34.8764 39.802 30.351 39.802 21.3V19.7C39.802 10.649 39.802 6.12356 37.018 3.31178C34.2341 0.5 29.7534 0.5 20.7921 0.5H19.2079C10.2466 0.5 5.76588 0.5 2.98193 3.31178ZM6.88125 12.6668C7.09574 23.0668 12.2442 29.3167 21.2706 29.3167H21.7823V23.3667C25.0991 23.7 27.6072 26.1501 28.6138 29.3167H33.3004C32.0132 24.5834 28.6302 21.9667 26.518 20.9667C28.6302 19.7334 31.6006 16.7334 32.3101 12.6668H28.0526C27.1285 15.9668 24.3895 18.9667 21.7823 19.25V12.6668H17.5247V24.2C14.8845 23.5334 11.5512 20.3001 11.4027 12.6668H6.88125Z" fill="url(#paint0_linear_23_325)"/>
</g>
</g>
<defs>
<linearGradient id="paint0_linear_23_325" x1="0.197998" y1="20.5" x2="39.802" y2="20.5" gradientUnits="userSpaceOnUse">
<stop stop-color="#E93673"/>
<stop offset="1" stop-color="#EA6A2E"/>
</linearGradient>
<clipPath id="clip0_23_325">
<rect width="40" height="40" fill="white" transform="translate(0 0.5)"/>
</clipPath>
</defs>
</svg>
