<svg width="364" height="82" viewBox="0 0 364 82" fill="none" xmlns="http://www.w3.org/2000/svg">
<rect x="0.5" y="0.5" width="121" height="32" rx="16" stroke="#1C1C1C"/>
<rect x="0.5" y="0.5" width="32" height="32" rx="16" fill="#1C1C1C"/>
<rect x="0.5" y="0.5" width="32" height="32" rx="16" stroke="#1C1C1C"/>
<path d="M15.808 21.14C15.248 21.14 14.7067 21.0327 14.184 20.818C13.6707 20.6033 13.2367 20.2533 12.882 19.768L13.652 19.082C13.876 19.418 14.1607 19.6933 14.506 19.908C14.8607 20.1227 15.2947 20.23 15.808 20.23C16.1533 20.23 16.466 20.174 16.746 20.062C17.0353 19.95 17.2827 19.7913 17.488 19.586C17.6933 19.3807 17.852 19.138 17.964 18.858C18.0853 18.578 18.146 18.27 18.146 17.934C18.146 17.57 18.0853 17.2527 17.964 16.982C17.8427 16.702 17.67 16.4733 17.446 16.296C17.2313 16.1093 16.9747 15.9693 16.676 15.876C16.3773 15.7827 16.0507 15.736 15.696 15.736C15.276 15.736 14.856 15.8153 14.436 15.974H13.946L14.45 11.2H18.468V12.18H15.276L15.01 14.952C15.1407 14.924 15.276 14.9007 15.416 14.882C15.5653 14.854 15.71 14.84 15.85 14.84C16.3633 14.84 16.8253 14.9147 17.236 15.064C17.6467 15.2133 17.992 15.428 18.272 15.708C18.5613 15.9787 18.7807 16.3053 18.93 16.688C19.0793 17.0707 19.154 17.4907 19.154 17.948C19.154 18.424 19.07 18.858 18.902 19.25C18.734 19.642 18.5007 19.978 18.202 20.258C17.9033 20.538 17.5487 20.7573 17.138 20.916C16.7367 21.0653 16.2933 21.14 15.808 21.14Z" fill="white"/>
<path d="M41.518 20.72L44.556 15.862L41.896 11.48V11.2H42.988L45.186 14.952L47.51 11.2H48.448V11.48L45.774 15.806L48.756 20.72V21H47.706L45.13 16.758L42.512 21H41.518V20.72ZM52.568 21.112C52.176 21.112 51.798 21.042 51.434 20.902C51.07 20.7527 50.7527 20.5427 50.482 20.272C50.2114 19.992 49.992 19.656 49.824 19.264C49.6654 18.8627 49.586 18.4147 49.586 17.92C49.586 17.4347 49.6607 16.996 49.81 16.604C49.9687 16.2027 50.1834 15.8667 50.454 15.596C50.7247 15.316 51.042 15.1013 51.406 14.952C51.77 14.8027 52.1574 14.728 52.568 14.728C53.156 14.728 53.6414 14.854 54.024 15.106C54.416 15.3487 54.6774 15.624 54.808 15.932V14.84H55.76V21H54.808V19.852C54.6307 20.216 54.346 20.5193 53.954 20.762C53.562 20.9953 53.1 21.112 52.568 21.112ZM52.666 20.174C53.002 20.174 53.3007 20.1133 53.562 19.992C53.8234 19.8613 54.038 19.6933 54.206 19.488C54.3834 19.2733 54.5187 19.0353 54.612 18.774C54.7054 18.5033 54.752 18.2327 54.752 17.962V17.738C54.7427 17.4673 54.6914 17.2107 54.598 16.968C54.5047 16.716 54.3694 16.4967 54.192 16.31C54.024 16.114 53.814 15.96 53.562 15.848C53.31 15.7267 53.0207 15.666 52.694 15.666C52.3954 15.666 52.12 15.7173 51.868 15.82C51.6254 15.9133 51.4107 16.058 51.224 16.254C51.0374 16.4407 50.8927 16.674 50.79 16.954C50.6874 17.234 50.636 17.5513 50.636 17.906C50.636 18.5873 50.8227 19.138 51.196 19.558C51.5694 19.9687 52.0594 20.174 52.666 20.174ZM57.8547 14.84H58.8627V17.276H59.5487L61.6067 14.84H62.6847V14.98L60.3327 17.668L63.2447 20.86V21H62.0827L59.4507 18.13H58.8627V21H57.8547V14.84ZM66.6091 21.112C66.2171 21.112 65.8391 21.042 65.4751 20.902C65.1111 20.7527 64.7937 20.5427 64.5231 20.272C64.2524 19.992 64.0331 19.656 63.8651 19.264C63.7064 18.8627 63.6271 18.4147 63.6271 17.92C63.6271 17.4347 63.7017 16.996 63.8511 16.604C64.0097 16.2027 64.2244 15.8667 64.4951 15.596C64.7657 15.316 65.0831 15.1013 65.4471 14.952C65.8111 14.8027 66.1984 14.728 66.6091 14.728C67.1971 14.728 67.6824 14.854 68.0651 15.106C68.4571 15.3487 68.7184 15.624 68.8491 15.932V14.84H69.8011V21H68.8491V19.852C68.6717 20.216 68.3871 20.5193 67.9951 20.762C67.6031 20.9953 67.1411 21.112 66.6091 21.112ZM66.7071 20.174C67.0431 20.174 67.3417 20.1133 67.6031 19.992C67.8644 19.8613 68.0791 19.6933 68.2471 19.488C68.4244 19.2733 68.5597 19.0353 68.6531 18.774C68.7464 18.5033 68.7931 18.2327 68.7931 17.962V17.738C68.7837 17.4673 68.7324 17.2107 68.6391 16.968C68.5457 16.716 68.4104 16.4967 68.2331 16.31C68.0651 16.114 67.8551 15.96 67.6031 15.848C67.3511 15.7267 67.0617 15.666 66.7351 15.666C66.4364 15.666 66.1611 15.7173 65.9091 15.82C65.6664 15.9133 65.4517 16.058 65.2651 16.254C65.0784 16.4407 64.9337 16.674 64.8311 16.954C64.7284 17.234 64.6771 17.5513 64.6771 17.906C64.6771 18.5873 64.8637 19.138 65.2371 19.558C65.6104 19.9687 66.1004 20.174 66.7071 20.174ZM73.2117 15.75H71.1957V14.84H76.2357V15.75H74.2197V21H73.2117V15.75ZM79.9704 21.112C79.5224 21.112 79.1071 21.0327 78.7244 20.874C78.3418 20.706 78.0058 20.4773 77.7164 20.188C77.4364 19.8987 77.2171 19.558 77.0584 19.166C76.8998 18.774 76.8204 18.3493 76.8204 17.892C76.8204 17.444 76.8998 17.0287 77.0584 16.646C77.2171 16.254 77.4364 15.918 77.7164 15.638C77.9964 15.3487 78.3278 15.1247 78.7104 14.966C79.1024 14.8073 79.5224 14.728 79.9704 14.728C80.4184 14.728 80.8338 14.8073 81.2164 14.966C81.5991 15.1247 81.9304 15.344 82.2104 15.624C82.4904 15.904 82.7098 16.24 82.8684 16.632C83.0271 17.0147 83.1064 17.4347 83.1064 17.892C83.1064 18.3493 83.0271 18.774 82.8684 19.166C82.7098 19.558 82.4904 19.8987 82.2104 20.188C81.9304 20.4773 81.5991 20.706 81.2164 20.874C80.8338 21.0327 80.4184 21.112 79.9704 21.112ZM79.9704 20.202C80.2878 20.202 80.5771 20.146 80.8384 20.034C81.0998 19.922 81.3238 19.7633 81.5104 19.558C81.6971 19.3527 81.8418 19.11 81.9444 18.83C82.0471 18.5407 82.0984 18.228 82.0984 17.892C82.0984 17.556 82.0471 17.2527 81.9444 16.982C81.8418 16.702 81.6971 16.464 81.5104 16.268C81.3238 16.0627 81.0998 15.9087 80.8384 15.806C80.5771 15.694 80.2878 15.638 79.9704 15.638C79.6531 15.638 79.3638 15.694 79.1024 15.806C78.8411 15.9087 78.6124 16.0627 78.4164 16.268C78.2298 16.464 78.0851 16.702 77.9824 16.982C77.8798 17.2527 77.8284 17.556 77.8284 17.892C77.8284 18.228 77.8798 18.5407 77.9824 18.83C78.0851 19.11 78.2298 19.3527 78.4164 19.558C78.6124 19.7633 78.8411 19.922 79.1024 20.034C79.3638 20.146 79.6531 20.202 79.9704 20.202ZM89.0453 18.172H85.7553V21H84.7473V14.84H85.7553V17.262H89.0453V14.84H90.0533V21H89.0453V18.172ZM94.8454 21.112C94.3974 21.112 93.9821 21.0327 93.5994 20.874C93.2168 20.706 92.8808 20.4773 92.5914 20.188C92.3114 19.8987 92.0921 19.558 91.9334 19.166C91.7748 18.774 91.6954 18.3493 91.6954 17.892C91.6954 17.444 91.7748 17.0287 91.9334 16.646C92.0921 16.254 92.3114 15.918 92.5914 15.638C92.8714 15.3487 93.2028 15.1247 93.5854 14.966C93.9774 14.8073 94.3974 14.728 94.8454 14.728C95.2934 14.728 95.7088 14.8073 96.0914 14.966C96.4741 15.1247 96.8054 15.344 97.0854 15.624C97.3654 15.904 97.5848 16.24 97.7434 16.632C97.9021 17.0147 97.9814 17.4347 97.9814 17.892C97.9814 18.3493 97.9021 18.774 97.7434 19.166C97.5848 19.558 97.3654 19.8987 97.0854 20.188C96.8054 20.4773 96.4741 20.706 96.0914 20.874C95.7088 21.0327 95.2934 21.112 94.8454 21.112ZM94.8454 20.202C95.1628 20.202 95.4521 20.146 95.7134 20.034C95.9748 19.922 96.1988 19.7633 96.3854 19.558C96.5721 19.3527 96.7168 19.11 96.8194 18.83C96.9221 18.5407 96.9734 18.228 96.9734 17.892C96.9734 17.556 96.9221 17.2527 96.8194 16.982C96.7168 16.702 96.5721 16.464 96.3854 16.268C96.1988 16.0627 95.9748 15.9087 95.7134 15.806C95.4521 15.694 95.1628 15.638 94.8454 15.638C94.5281 15.638 94.2388 15.694 93.9774 15.806C93.7161 15.9087 93.4874 16.0627 93.2914 16.268C93.1048 16.464 92.9601 16.702 92.8574 16.982C92.7548 17.2527 92.7034 17.556 92.7034 17.892C92.7034 18.228 92.7548 18.5407 92.8574 18.83C92.9601 19.11 93.1048 19.3527 93.2914 19.558C93.4874 19.7633 93.7161 19.922 93.9774 20.034C94.2388 20.146 94.5281 20.202 94.8454 20.202ZM99.6223 14.84H102.282C102.926 14.84 103.402 14.98 103.71 15.26C104.018 15.5307 104.172 15.8807 104.172 16.31C104.172 16.6647 104.07 16.954 103.864 17.178C103.668 17.3927 103.398 17.5327 103.052 17.598C103.538 17.6447 103.934 17.7893 104.242 18.032C104.56 18.2747 104.718 18.662 104.718 19.194C104.718 19.754 104.522 20.1973 104.13 20.524C103.738 20.8413 103.146 21 102.352 21H99.6223V14.84ZM100.63 18.088V20.09H102.072C102.651 20.09 103.066 20.0107 103.318 19.852C103.58 19.684 103.71 19.4227 103.71 19.068C103.71 18.704 103.58 18.452 103.318 18.312C103.066 18.1627 102.698 18.088 102.212 18.088H100.63ZM100.63 15.75V17.262H102.03C102.404 17.262 102.693 17.2107 102.898 17.108C103.104 16.996 103.206 16.7953 103.206 16.506C103.206 16.226 103.108 16.03 102.912 15.918C102.716 15.806 102.413 15.75 102.002 15.75H100.63Z" fill="black"/>
<rect x="138.5" y="0.5" width="98" height="32" rx="16" stroke="#1C1C1C"/>
<path d="M160 8.5C156.692 8.5 154 11.124 154 14.3481C154 17.4868 159.551 24.1214 159.789 24.4013C159.841 24.4653 159.918 24.5 160 24.5C160.082 24.5 160.159 24.4653 160.211 24.4013C160.449 24.1213 166 17.4866 166 14.3481C166 11.124 163.308 8.5 160 8.5H160ZM157.081 14.3481C157.081 12.7774 158.391 11.5027 160 11.5027C161.609 11.5027 162.92 12.7774 162.92 14.3481C162.92 15.9187 161.609 17.1907 160 17.1907C158.391 17.1907 157.081 15.916 157.081 14.3481Z" fill="black"/>
<path d="M176.212 11.2H176.87L180.034 18.956L183.114 11.2H183.772L185.242 21H184.234L183.128 13.58L180.146 21.07H179.88L176.842 13.706L175.904 21H174.882L176.212 11.2ZM189.66 21.112C189.212 21.112 188.797 21.0327 188.414 20.874C188.031 20.706 187.695 20.4773 187.406 20.188C187.126 19.8987 186.907 19.558 186.748 19.166C186.589 18.774 186.51 18.3493 186.51 17.892C186.51 17.444 186.589 17.0287 186.748 16.646C186.907 16.254 187.126 15.918 187.406 15.638C187.686 15.3487 188.017 15.1247 188.4 14.966C188.792 14.8073 189.212 14.728 189.66 14.728C190.108 14.728 190.523 14.8073 190.906 14.966C191.289 15.1247 191.62 15.344 191.9 15.624C192.18 15.904 192.399 16.24 192.558 16.632C192.717 17.0147 192.796 17.4347 192.796 17.892C192.796 18.3493 192.717 18.774 192.558 19.166C192.399 19.558 192.18 19.8987 191.9 20.188C191.62 20.4773 191.289 20.706 190.906 20.874C190.523 21.0327 190.108 21.112 189.66 21.112ZM189.66 20.202C189.977 20.202 190.267 20.146 190.528 20.034C190.789 19.922 191.013 19.7633 191.2 19.558C191.387 19.3527 191.531 19.11 191.634 18.83C191.737 18.5407 191.788 18.228 191.788 17.892C191.788 17.556 191.737 17.2527 191.634 16.982C191.531 16.702 191.387 16.464 191.2 16.268C191.013 16.0627 190.789 15.9087 190.528 15.806C190.267 15.694 189.977 15.638 189.66 15.638C189.343 15.638 189.053 15.694 188.792 15.806C188.531 15.9087 188.302 16.0627 188.106 16.268C187.919 16.464 187.775 16.702 187.672 16.982C187.569 17.2527 187.518 17.556 187.518 17.892C187.518 18.228 187.569 18.5407 187.672 18.83C187.775 19.11 187.919 19.3527 188.106 19.558C188.302 19.7633 188.531 19.922 188.792 20.034C189.053 20.146 189.343 20.202 189.66 20.202ZM197.167 21.112C196.672 21.112 196.229 21.0327 195.837 20.874C195.445 20.706 195.109 20.4773 194.829 20.188C194.558 19.8987 194.348 19.558 194.199 19.166C194.049 18.774 193.975 18.3493 193.975 17.892C193.975 17.3973 194.059 16.954 194.227 16.562C194.395 16.17 194.619 15.8387 194.899 15.568C195.188 15.2973 195.524 15.092 195.907 14.952C196.299 14.8027 196.719 14.728 197.167 14.728C197.643 14.728 198.086 14.8073 198.497 14.966C198.907 15.1247 199.253 15.3487 199.533 15.638L198.945 16.422C198.739 16.1793 198.483 15.988 198.175 15.848C197.867 15.708 197.535 15.638 197.181 15.638C196.882 15.638 196.597 15.6893 196.327 15.792C196.065 15.8947 195.832 16.044 195.627 16.24C195.431 16.4267 195.272 16.66 195.151 16.94C195.039 17.2107 194.983 17.5233 194.983 17.878C194.983 18.2233 195.039 18.5407 195.151 18.83C195.263 19.11 195.421 19.3527 195.627 19.558C195.832 19.7633 196.07 19.922 196.341 20.034C196.621 20.146 196.924 20.202 197.251 20.202C197.633 20.202 197.974 20.132 198.273 19.992C198.571 19.8427 198.814 19.6513 199.001 19.418L199.631 20.048C199.369 20.356 199.033 20.6127 198.623 20.818C198.212 21.014 197.727 21.112 197.167 21.112ZM201.081 14.84H202.089V17.276H202.775L204.833 14.84H205.911V14.98L203.559 17.668L206.471 20.86V21H205.309L202.677 18.13H202.089V21H201.081V14.84ZM207.589 14.84H210.249C210.893 14.84 211.369 14.98 211.677 15.26C211.985 15.5307 212.139 15.8807 212.139 16.31C212.139 16.6647 212.036 16.954 211.831 17.178C211.635 17.3927 211.364 17.5327 211.019 17.598C211.504 17.6447 211.901 17.7893 212.209 18.032C212.526 18.2747 212.685 18.662 212.685 19.194C212.685 19.754 212.489 20.1973 212.097 20.524C211.705 20.8413 211.112 21 210.319 21H207.589V14.84ZM208.597 18.088V20.09H210.039C210.618 20.09 211.033 20.0107 211.285 19.852C211.546 19.684 211.677 19.4227 211.677 19.068C211.677 18.704 211.546 18.452 211.285 18.312C211.033 18.1627 210.664 18.088 210.179 18.088H208.597ZM208.597 15.75V17.262H209.997C210.37 17.262 210.66 17.2107 210.865 17.108C211.07 16.996 211.173 16.7953 211.173 16.506C211.173 16.226 211.075 16.03 210.879 15.918C210.683 15.806 210.38 15.75 209.969 15.75H208.597ZM216.685 21.112C216.293 21.112 215.915 21.042 215.551 20.902C215.187 20.7527 214.87 20.5427 214.599 20.272C214.329 19.992 214.109 19.656 213.941 19.264C213.783 18.8627 213.703 18.4147 213.703 17.92C213.703 17.4347 213.778 16.996 213.927 16.604C214.086 16.2027 214.301 15.8667 214.571 15.596C214.842 15.316 215.159 15.1013 215.523 14.952C215.887 14.8027 216.275 14.728 216.685 14.728C217.273 14.728 217.759 14.854 218.141 15.106C218.533 15.3487 218.795 15.624 218.925 15.932V14.84H219.877V21H218.925V19.852C218.748 20.216 218.463 20.5193 218.071 20.762C217.679 20.9953 217.217 21.112 216.685 21.112ZM216.783 20.174C217.119 20.174 217.418 20.1133 217.679 19.992C217.941 19.8613 218.155 19.6933 218.323 19.488C218.501 19.2733 218.636 19.0353 218.729 18.774C218.823 18.5033 218.869 18.2327 218.869 17.962V17.738C218.86 17.4673 218.809 17.2107 218.715 16.968C218.622 16.716 218.487 16.4967 218.309 16.31C218.141 16.114 217.931 15.96 217.679 15.848C217.427 15.7267 217.138 15.666 216.811 15.666C216.513 15.666 216.237 15.7173 215.985 15.82C215.743 15.9133 215.528 16.058 215.341 16.254C215.155 16.4407 215.01 16.674 214.907 16.954C214.805 17.234 214.753 17.5513 214.753 17.906C214.753 18.5873 214.94 19.138 215.313 19.558C215.687 19.9687 216.177 20.174 216.783 20.174Z" fill="black"/>
<rect x="253.5" y="0.5" width="110" height="32" rx="16" stroke="#1C1C1C"/>
<path d="M284.973 18.0872C284.888 17.1497 284.201 16.5703 283.252 16.5559C283.081 16.5531 282.911 16.5559 282.697 16.5559V16.5506C281.84 16.5506 280.984 16.5467 280.127 16.5388C280.207 16.5388 279.693 16.5281 279.31 16.5194H278.117V12.5731H278.095C278.073 12.4796 278.02 12.3963 277.944 12.3366C277.868 12.277 277.775 12.2445 277.679 12.2444H276.283C276.226 12.2444 276.171 12.2556 276.119 12.2772C276.066 12.2988 276.019 12.3305 275.979 12.3704C275.939 12.4103 275.908 12.4576 275.886 12.5097C275.865 12.5618 275.854 12.6177 275.854 12.6741V16.4772C275.854 16.4913 275.854 16.5053 275.856 16.5194H274.833C274.673 16.5484 272.624 16.5625 270.615 16.5619H270.583C269.924 16.6003 269.244 17.0841 269.141 17.7247C269.024 18.4463 269.041 19.1875 269 19.9203L269.144 20.0163C269.413 19.8622 269.681 19.7038 269.952 19.5553C270.382 19.3181 270.791 18.9928 271.253 18.8728C272.027 18.6694 272.745 18.9122 273.338 19.4666C273.699 19.8013 274.098 20.0625 274.608 19.9063C274.866 19.8269 275.115 19.6669 275.326 19.4919C276.42 18.5875 277.606 18.57 278.663 19.4647C279.444 20.125 279.912 20.0947 280.727 19.4575C281.084 19.1779 281.495 18.9762 281.934 18.8653C282.668 18.69 283.341 18.9141 283.919 19.4163C284.216 19.6728 284.499 19.9916 284.982 19.9138C284.983 19.2975 285.027 18.6875 284.973 18.0872Z" fill="black"/>
<path d="M282.077 19.9999C281.796 20.0812 281.534 20.2858 281.299 20.4787C280.494 21.1399 279.617 21.309 278.665 20.8715C278.378 20.7393 278.13 20.5143 277.878 20.314C277.281 19.8402 276.745 19.8365 276.164 20.3168C276.059 20.4027 275.957 20.4908 275.851 20.5733C275.239 21.0446 274.547 21.2665 273.806 21.0208C273.374 20.8774 272.969 20.6068 272.598 20.3333C271.989 19.8833 271.419 19.8108 270.91 20.2649C270.373 20.744 269.792 21.0937 269.049 21.1218V24.4999H284.972V21.1221C284.276 21.0808 283.7 20.8146 283.222 20.3408C282.898 20.0215 282.5 19.8787 282.077 19.9999Z" fill="black"/>
<path d="M276.997 11.9575C277.481 11.9625 277.884 11.7284 278.014 11.2544C278.111 10.9003 278.151 10.5 278.094 10.1406C277.992 9.49125 277.702 8.92 277.031 8.5C277.036 9.22625 276.683 9.64969 276.237 10.0313C275.894 10.3269 275.795 10.8328 275.962 11.25C276.042 11.4591 276.184 11.6389 276.369 11.7653C276.554 11.8917 276.773 11.9587 276.997 11.9575Z" fill="black"/>
<path d="M294.05 20.86L297.144 17.052C297.471 16.6507 297.737 16.296 297.942 15.988C298.157 15.6707 298.32 15.386 298.432 15.134C298.553 14.8727 298.637 14.63 298.684 14.406C298.731 14.1727 298.754 13.93 298.754 13.678C298.754 13.118 298.595 12.7073 298.278 12.446C297.961 12.1753 297.545 12.04 297.032 12.04C296.211 12.04 295.473 12.418 294.82 13.174L294.19 12.6C294.311 12.4227 294.465 12.2453 294.652 12.068C294.848 11.8907 295.067 11.732 295.31 11.592C295.562 11.452 295.837 11.34 296.136 11.256C296.444 11.1627 296.775 11.116 297.13 11.116C297.559 11.116 297.937 11.1813 298.264 11.312C298.591 11.4333 298.866 11.606 299.09 11.83C299.314 12.0447 299.482 12.3013 299.594 12.6C299.706 12.8987 299.762 13.2207 299.762 13.566C299.762 13.8553 299.734 14.1447 299.678 14.434C299.631 14.714 299.543 15.0033 299.412 15.302C299.291 15.6007 299.118 15.918 298.894 16.254C298.679 16.59 298.409 16.9587 298.082 17.36L295.842 20.09H299.972V21H294.05V20.86ZM305.155 21.084C304.651 21.084 304.198 20.9673 303.797 20.734C303.396 20.4913 303.06 20.1553 302.789 19.726C302.518 19.2873 302.308 18.7647 302.159 18.158C302.019 17.542 301.949 16.8607 301.949 16.114C301.949 15.3113 302.028 14.602 302.187 13.986C302.355 13.3607 302.584 12.838 302.873 12.418C303.162 11.9887 303.498 11.6667 303.881 11.452C304.264 11.228 304.674 11.116 305.113 11.116C305.617 11.116 306.065 11.2373 306.457 11.48C306.858 11.7133 307.194 12.0493 307.465 12.488C307.745 12.9173 307.955 13.44 308.095 14.056C308.235 14.6627 308.305 15.3393 308.305 16.086C308.305 16.8887 308.221 17.6027 308.053 18.228C307.894 18.844 307.67 19.3667 307.381 19.796C307.101 20.216 306.77 20.538 306.387 20.762C306.004 20.9767 305.594 21.084 305.155 21.084ZM305.155 20.104C305.435 20.104 305.701 20.0293 305.953 19.88C306.214 19.7307 306.438 19.4973 306.625 19.18C306.821 18.8533 306.975 18.438 307.087 17.934C307.199 17.4207 307.255 16.8047 307.255 16.086C307.255 15.4047 307.199 14.812 307.087 14.308C306.984 13.804 306.84 13.3887 306.653 13.062C306.466 12.7353 306.242 12.4927 305.981 12.334C305.72 12.1753 305.43 12.096 305.113 12.096C304.833 12.096 304.562 12.1707 304.301 12.32C304.049 12.4693 303.825 12.7073 303.629 13.034C303.433 13.3513 303.279 13.7667 303.167 14.28C303.055 14.784 302.999 15.3953 302.999 16.114C302.999 16.8047 303.05 17.402 303.153 17.906C303.265 18.4007 303.414 18.8113 303.601 19.138C303.797 19.4647 304.026 19.7073 304.287 19.866C304.548 20.0247 304.838 20.104 305.155 20.104ZM309.773 20.86L312.867 17.052C313.193 16.6507 313.459 16.296 313.665 15.988C313.879 15.6707 314.043 15.386 314.155 15.134C314.276 14.8727 314.36 14.63 314.407 14.406C314.453 14.1727 314.477 13.93 314.477 13.678C314.477 13.118 314.318 12.7073 314.001 12.446C313.683 12.1753 313.268 12.04 312.755 12.04C311.933 12.04 311.196 12.418 310.543 13.174L309.913 12.6C310.034 12.4227 310.188 12.2453 310.375 12.068C310.571 11.8907 310.79 11.732 311.033 11.592C311.285 11.452 311.56 11.34 311.859 11.256C312.167 11.1627 312.498 11.116 312.853 11.116C313.282 11.116 313.66 11.1813 313.987 11.312C314.313 11.4333 314.589 11.606 314.813 11.83C315.037 12.0447 315.205 12.3013 315.317 12.6C315.429 12.8987 315.485 13.2207 315.485 13.566C315.485 13.8553 315.457 14.1447 315.401 14.434C315.354 14.714 315.265 15.0033 315.135 15.302C315.013 15.6007 314.841 15.918 314.617 16.254C314.402 16.59 314.131 16.9587 313.805 17.36L311.565 20.09H315.695V21H309.773V20.86ZM317.415 20.86L320.509 17.052C320.836 16.6507 321.102 16.296 321.307 15.988C321.522 15.6707 321.685 15.386 321.797 15.134C321.919 14.8727 322.003 14.63 322.049 14.406C322.096 14.1727 322.119 13.93 322.119 13.678C322.119 13.118 321.961 12.7073 321.643 12.446C321.326 12.1753 320.911 12.04 320.397 12.04C319.576 12.04 318.839 12.418 318.185 13.174L317.555 12.6C317.677 12.4227 317.831 12.2453 318.017 12.068C318.213 11.8907 318.433 11.732 318.675 11.592C318.927 11.452 319.203 11.34 319.501 11.256C319.809 11.1627 320.141 11.116 320.495 11.116C320.925 11.116 321.303 11.1813 321.629 11.312C321.956 11.4333 322.231 11.606 322.455 11.83C322.679 12.0447 322.847 12.3013 322.959 12.6C323.071 12.8987 323.127 13.2207 323.127 13.566C323.127 13.8553 323.099 14.1447 323.043 14.434C322.997 14.714 322.908 15.0033 322.777 15.302C322.656 15.6007 322.483 15.918 322.259 16.254C322.045 16.59 321.774 16.9587 321.447 17.36L319.207 20.09H323.337V21H317.415V20.86ZM329.228 14.84H333.204V15.75H330.236V21H329.228V14.84ZM337.07 21.112C336.622 21.112 336.207 21.0327 335.824 20.874C335.441 20.706 335.105 20.4773 334.816 20.188C334.536 19.8987 334.317 19.558 334.158 19.166C333.999 18.774 333.92 18.3493 333.92 17.892C333.92 17.444 333.999 17.0287 334.158 16.646C334.317 16.254 334.536 15.918 334.816 15.638C335.096 15.3487 335.427 15.1247 335.81 14.966C336.202 14.8073 336.622 14.728 337.07 14.728C337.518 14.728 337.933 14.8073 338.316 14.966C338.699 15.1247 339.03 15.344 339.31 15.624C339.59 15.904 339.809 16.24 339.968 16.632C340.127 17.0147 340.206 17.4347 340.206 17.892C340.206 18.3493 340.127 18.774 339.968 19.166C339.809 19.558 339.59 19.8987 339.31 20.188C339.03 20.4773 338.699 20.706 338.316 20.874C337.933 21.0327 337.518 21.112 337.07 21.112ZM337.07 20.202C337.387 20.202 337.677 20.146 337.938 20.034C338.199 19.922 338.423 19.7633 338.61 19.558C338.797 19.3527 338.941 19.11 339.044 18.83C339.147 18.5407 339.198 18.228 339.198 17.892C339.198 17.556 339.147 17.2527 339.044 16.982C338.941 16.702 338.797 16.464 338.61 16.268C338.423 16.0627 338.199 15.9087 337.938 15.806C337.677 15.694 337.387 15.638 337.07 15.638C336.753 15.638 336.463 15.694 336.202 15.806C335.941 15.9087 335.712 16.0627 335.516 16.268C335.329 16.464 335.185 16.702 335.082 16.982C334.979 17.2527 334.928 17.556 334.928 17.892C334.928 18.228 334.979 18.5407 335.082 18.83C335.185 19.11 335.329 19.3527 335.516 19.558C335.712 19.7633 335.941 19.922 336.202 20.034C336.463 20.146 336.753 20.202 337.07 20.202ZM340.758 20.09H341.528C341.771 19.6233 341.953 19.082 342.074 18.466C342.195 17.8407 342.256 17.0847 342.256 16.198V14.84H346.582V20.09H347.716V22.54H346.806V21H341.668V22.54H340.758V20.09ZM343.222 16.59C343.222 17.29 343.166 17.9247 343.054 18.494C342.951 19.054 342.807 19.586 342.62 20.09H345.574V15.75H343.222V16.59Z" fill="black"/>
<rect y="49" width="156" height="33" rx="16.5" fill="url(#paint0_linear_58_2528)"/>
<path fill-rule="evenodd" clip-rule="evenodd" d="M28.9091 57.6559C28.9091 65.0377 25.2687 67.6427 24.2222 68.2392V69.523C26.2744 70.249 27.1009 72.1853 27.2278 72.5123C27.2576 72.5745 27.2748 72.6441 27.2748 72.7176C27.2748 72.9765 27.0651 73.1868 26.806 73.1868H20.7004V73.1848C20.648 73.1848 20.5951 73.176 20.5431 73.1574C20.3006 73.0701 20.1742 72.8029 20.261 72.5598C20.2634 72.5529 21.0428 70.3157 23.2846 69.523V68.2392C22.2382 67.6427 18.5978 65.0377 18.5978 57.6559C18.5978 57.3971 18.8074 57.1868 19.0666 57.1868H28.4407C28.6994 57.1868 28.9096 57.3966 28.9096 57.6559H28.9091ZM29.7968 59.1407H31.2846C31.5437 59.1407 31.7534 59.3505 31.7534 59.6098C31.7534 59.6284 31.7524 59.6466 31.75 59.6647C31.7309 60.1657 31.4433 65.0902 27.5349 66.3206C27.6094 66.2118 27.6814 66.1029 27.7505 65.9931C29.0418 63.948 29.6327 61.5441 29.7968 59.1407ZM16.2222 59.1407H17.7101C17.8742 61.5441 18.465 63.948 19.7564 65.9931C19.8254 66.1029 19.8974 66.2118 19.9719 66.3206C16.0635 65.0902 15.776 60.1657 15.7568 59.6647C15.7549 59.6466 15.7534 59.6284 15.7534 59.6098C15.7534 59.351 15.9631 59.1407 16.2222 59.1407Z" fill="#1C1C1C"/>
<path d="M50.772 61.502L48.938 62.202V61.152L51.78 60.06V70H50.772V61.502ZM58.2922 63.84H63.3882V70H62.3802V64.75H59.3002V70H58.2922V63.84ZM68.2136 70.112C67.7563 70.112 67.3316 70.0373 66.9396 69.888C66.5569 69.7387 66.2209 69.5287 65.9316 69.258C65.6516 68.978 65.4276 68.642 65.2596 68.25C65.1009 67.858 65.0216 67.4147 65.0216 66.92C65.0216 66.4067 65.1056 65.954 65.2736 65.562C65.4509 65.1607 65.6843 64.8247 65.9736 64.554C66.2723 64.2833 66.6083 64.078 66.9816 63.938C67.3643 63.798 67.7609 63.728 68.1716 63.728C68.6476 63.728 69.0676 63.8167 69.4316 63.994C69.8049 64.162 70.1176 64.3907 70.3696 64.68C70.6216 64.9693 70.8129 65.296 70.9436 65.66C71.0743 66.024 71.1396 66.3927 71.1396 66.766V67.116H66.0296C66.0576 67.4427 66.1323 67.7367 66.2536 67.998C66.3749 68.25 66.5336 68.4693 66.7296 68.656C66.9349 68.8333 67.1683 68.9687 67.4296 69.062C67.6909 69.1553 67.9709 69.202 68.2696 69.202C68.6616 69.202 69.0256 69.1273 69.3616 68.978C69.7069 68.8193 69.9823 68.6047 70.1876 68.334L70.8456 68.936C70.5469 69.3373 70.1596 69.636 69.6836 69.832C69.2169 70.0187 68.7269 70.112 68.2136 70.112ZM68.0736 64.638C67.5789 64.638 67.1543 64.7827 66.7996 65.072C66.4449 65.3613 66.2116 65.758 66.0996 66.262H70.0896C69.9963 65.786 69.7629 65.3987 69.3896 65.1C69.0256 64.792 68.5869 64.638 68.0736 64.638ZM72.7844 73.36V63.84H73.7364V64.932C73.867 64.624 74.1237 64.3487 74.5064 64.106C74.889 63.854 75.379 63.728 75.9764 63.728C76.387 63.728 76.7744 63.8027 77.1384 63.952C77.5024 64.1013 77.8197 64.316 78.0904 64.596C78.361 64.8667 78.571 65.2027 78.7204 65.604C78.879 65.996 78.9584 66.4347 78.9584 66.92C78.9584 67.4147 78.8744 67.8627 78.7064 68.264C78.5477 68.656 78.333 68.992 78.0624 69.272C77.7917 69.5427 77.4744 69.7527 77.1104 69.902C76.7464 70.042 76.3684 70.112 75.9764 70.112C75.4724 70.112 75.029 70.0047 74.6464 69.79C74.2637 69.5753 73.979 69.3 73.7924 68.964V73.36H72.7844ZM75.8504 64.666C75.5237 64.666 75.2344 64.7267 74.9824 64.848C74.7304 64.96 74.5157 65.114 74.3384 65.31C74.161 65.4967 74.0257 65.716 73.9324 65.968C73.8484 66.2107 73.8017 66.4673 73.7924 66.738V66.962C73.7924 67.2327 73.839 67.5033 73.9324 67.774C74.0257 68.0353 74.1564 68.2733 74.3244 68.488C74.5017 68.6933 74.721 68.8613 74.9824 68.992C75.2437 69.1133 75.5424 69.174 75.8784 69.174C76.485 69.174 76.975 68.9687 77.3484 68.558C77.7217 68.138 77.9084 67.5873 77.9084 66.906C77.9084 66.5513 77.857 66.234 77.7544 65.954C77.6517 65.674 77.507 65.4407 77.3204 65.254C77.1337 65.058 76.9144 64.9133 76.6624 64.82C76.4104 64.7173 76.1397 64.666 75.8504 64.666ZM80.591 63.84H83.251C83.895 63.84 84.371 63.98 84.679 64.26C84.987 64.5307 85.141 64.8807 85.141 65.31C85.141 65.6647 85.0383 65.954 84.833 66.178C84.637 66.3927 84.3663 66.5327 84.021 66.598C84.5063 66.6447 84.903 66.7893 85.211 67.032C85.5283 67.2747 85.687 67.662 85.687 68.194C85.687 68.754 85.491 69.1973 85.099 69.524C84.707 69.8413 84.1143 70 83.321 70H80.591V63.84ZM81.599 67.088V69.09H83.041C83.6197 69.09 84.035 69.0107 84.287 68.852C84.5483 68.684 84.679 68.4227 84.679 68.068C84.679 67.704 84.5483 67.452 84.287 67.312C84.035 67.1627 83.6663 67.088 83.181 67.088H81.599ZM81.599 64.75V66.262H82.999C83.3723 66.262 83.6617 66.2107 83.867 66.108C84.0723 65.996 84.175 65.7953 84.175 65.506C84.175 65.226 84.077 65.03 83.881 64.918C83.685 64.806 83.3817 64.75 82.971 64.75H81.599ZM89.8552 70.112C89.4072 70.112 88.9919 70.0327 88.6092 69.874C88.2265 69.706 87.8905 69.4773 87.6012 69.188C87.3212 68.8987 87.1019 68.558 86.9432 68.166C86.7845 67.774 86.7052 67.3493 86.7052 66.892C86.7052 66.444 86.7845 66.0287 86.9432 65.646C87.1019 65.254 87.3212 64.918 87.6012 64.638C87.8812 64.3487 88.2125 64.1247 88.5952 63.966C88.9872 63.8073 89.4072 63.728 89.8552 63.728C90.3032 63.728 90.7185 63.8073 91.1012 63.966C91.4839 64.1247 91.8152 64.344 92.0952 64.624C92.3752 64.904 92.5945 65.24 92.7532 65.632C92.9119 66.0147 92.9912 66.4347 92.9912 66.892C92.9912 67.3493 92.9119 67.774 92.7532 68.166C92.5945 68.558 92.3752 68.8987 92.0952 69.188C91.8152 69.4773 91.4839 69.706 91.1012 69.874C90.7185 70.0327 90.3032 70.112 89.8552 70.112ZM89.8552 69.202C90.1725 69.202 90.4619 69.146 90.7232 69.034C90.9845 68.922 91.2085 68.7633 91.3952 68.558C91.5819 68.3527 91.7265 68.11 91.8292 67.83C91.9319 67.5407 91.9832 67.228 91.9832 66.892C91.9832 66.556 91.9319 66.2527 91.8292 65.982C91.7265 65.702 91.5819 65.464 91.3952 65.268C91.2085 65.0627 90.9845 64.9087 90.7232 64.806C90.4619 64.694 90.1725 64.638 89.8552 64.638C89.5379 64.638 89.2485 64.694 88.9872 64.806C88.7259 64.9087 88.4972 65.0627 88.3012 65.268C88.1145 65.464 87.9699 65.702 87.8672 65.982C87.7645 66.2527 87.7132 66.556 87.7132 66.892C87.7132 67.228 87.7645 67.5407 87.8672 67.83C87.9699 68.11 88.1145 68.3527 88.3012 68.558C88.4972 68.7633 88.7259 68.922 88.9872 69.034C89.2485 69.146 89.5379 69.202 89.8552 69.202ZM97.362 70.112C96.9047 70.112 96.48 70.0373 96.088 69.888C95.7054 69.7387 95.3694 69.5287 95.08 69.258C94.8 68.978 94.576 68.642 94.408 68.25C94.2494 67.858 94.17 67.4147 94.17 66.92C94.17 66.4067 94.254 65.954 94.422 65.562C94.5994 65.1607 94.8327 64.8247 95.122 64.554C95.4207 64.2833 95.7567 64.078 96.13 63.938C96.5127 63.798 96.9094 63.728 97.32 63.728C97.796 63.728 98.216 63.8167 98.58 63.994C98.9534 64.162 99.266 64.3907 99.518 64.68C99.77 64.9693 99.9614 65.296 100.092 65.66C100.223 66.024 100.288 66.3927 100.288 66.766V67.116H95.178C95.206 67.4427 95.2807 67.7367 95.402 67.998C95.5234 68.25 95.682 68.4693 95.878 68.656C96.0834 68.8333 96.3167 68.9687 96.578 69.062C96.8394 69.1553 97.1194 69.202 97.418 69.202C97.81 69.202 98.174 69.1273 98.51 68.978C98.8554 68.8193 99.1307 68.6047 99.336 68.334L99.994 68.936C99.6954 69.3373 99.308 69.636 98.832 69.832C98.3654 70.0187 97.8754 70.112 97.362 70.112ZM97.222 64.638C96.7274 64.638 96.3027 64.7827 95.948 65.072C95.5934 65.3613 95.36 65.758 95.248 66.262H99.238C99.1447 65.786 98.9114 65.3987 98.538 65.1C98.174 64.792 97.7354 64.638 97.222 64.638ZM106.158 63.84H106.802L108.846 68.264L110.848 63.84H111.492L112.57 70H111.618L110.904 65.73L108.916 70H108.678L106.718 65.814L106.004 70H105.08L106.158 63.84ZM116.749 70.112C116.291 70.112 115.867 70.0373 115.475 69.888C115.092 69.7387 114.756 69.5287 114.467 69.258C114.187 68.978 113.963 68.642 113.795 68.25C113.636 67.858 113.557 67.4147 113.557 66.92C113.557 66.4067 113.641 65.954 113.809 65.562C113.986 65.1607 114.219 64.8247 114.509 64.554C114.807 64.2833 115.143 64.078 115.517 63.938C115.899 63.798 116.296 63.728 116.707 63.728C117.183 63.728 117.603 63.8167 117.967 63.994C118.34 64.162 118.653 64.3907 118.905 64.68C119.157 64.9693 119.348 65.296 119.479 65.66C119.609 66.024 119.675 66.3927 119.675 66.766V67.116H114.565C114.593 67.4427 114.667 67.7367 114.789 67.998C114.91 68.25 115.069 68.4693 115.265 68.656C115.47 68.8333 115.703 68.9687 115.965 69.062C116.226 69.1553 116.506 69.202 116.805 69.202C117.197 69.202 117.561 69.1273 117.897 68.978C118.242 68.8193 118.517 68.6047 118.723 68.334L119.381 68.936C119.082 69.3373 118.695 69.636 118.219 69.832C117.752 70.0187 117.262 70.112 116.749 70.112ZM116.609 64.638C116.114 64.638 115.689 64.7827 115.335 65.072C114.98 65.3613 114.747 65.758 114.635 66.262H118.625C118.531 65.786 118.298 65.3987 117.925 65.1C117.561 64.792 117.122 64.638 116.609 64.638ZM124.05 70.112C123.555 70.112 123.112 70.0327 122.72 69.874C122.328 69.706 121.992 69.4773 121.712 69.188C121.441 68.8987 121.231 68.558 121.082 68.166C120.932 67.774 120.858 67.3493 120.858 66.892C120.858 66.3973 120.942 65.954 121.11 65.562C121.278 65.17 121.502 64.8387 121.782 64.568C122.071 64.2973 122.407 64.092 122.79 63.952C123.182 63.8027 123.602 63.728 124.05 63.728C124.526 63.728 124.969 63.8073 125.38 63.966C125.79 64.1247 126.136 64.3487 126.416 64.638L125.828 65.422C125.622 65.1793 125.366 64.988 125.058 64.848C124.75 64.708 124.418 64.638 124.064 64.638C123.765 64.638 123.48 64.6893 123.21 64.792C122.948 64.8947 122.715 65.044 122.51 65.24C122.314 65.4267 122.155 65.66 122.034 65.94C121.922 66.2107 121.866 66.5233 121.866 66.878C121.866 67.2233 121.922 67.5407 122.034 67.83C122.146 68.11 122.304 68.3527 122.51 68.558C122.715 68.7633 122.953 68.922 123.224 69.034C123.504 69.146 123.807 69.202 124.134 69.202C124.516 69.202 124.857 69.132 125.156 68.992C125.454 68.8427 125.697 68.6513 125.884 68.418L126.514 69.048C126.252 69.356 125.916 69.6127 125.506 69.818C125.095 70.014 124.61 70.112 124.05 70.112ZM129.28 64.75H127.264V63.84H132.304V64.75H130.288V70H129.28V64.75ZM136.039 70.112C135.591 70.112 135.175 70.0327 134.793 69.874C134.41 69.706 134.074 69.4773 133.785 69.188C133.505 68.8987 133.285 68.558 133.127 68.166C132.968 67.774 132.889 67.3493 132.889 66.892C132.889 66.444 132.968 66.0287 133.127 65.646C133.285 65.254 133.505 64.918 133.785 64.638C134.065 64.3487 134.396 64.1247 134.779 63.966C135.171 63.8073 135.591 63.728 136.039 63.728C136.487 63.728 136.902 63.8073 137.285 63.966C137.667 64.1247 137.999 64.344 138.279 64.624C138.559 64.904 138.778 65.24 138.937 65.632C139.095 66.0147 139.175 66.4347 139.175 66.892C139.175 67.3493 139.095 67.774 138.937 68.166C138.778 68.558 138.559 68.8987 138.279 69.188C137.999 69.4773 137.667 69.706 137.285 69.874C136.902 70.0327 136.487 70.112 136.039 70.112ZM136.039 69.202C136.356 69.202 136.645 69.146 136.907 69.034C137.168 68.922 137.392 68.7633 137.579 68.558C137.765 68.3527 137.91 68.11 138.013 67.83C138.115 67.5407 138.167 67.228 138.167 66.892C138.167 66.556 138.115 66.2527 138.013 65.982C137.91 65.702 137.765 65.464 137.579 65.268C137.392 65.0627 137.168 64.9087 136.907 64.806C136.645 64.694 136.356 64.638 136.039 64.638C135.721 64.638 135.432 64.694 135.171 64.806C134.909 64.9087 134.681 65.0627 134.485 65.268C134.298 65.464 134.153 65.702 134.051 65.982C133.948 66.2527 133.897 66.556 133.897 66.892C133.897 67.228 133.948 67.5407 134.051 67.83C134.153 68.11 134.298 68.3527 134.485 68.558C134.681 68.7633 134.909 68.922 135.171 69.034C135.432 69.146 135.721 69.202 136.039 69.202Z" fill="#1C1C1C"/>
<rect x="172" y="49" width="158" height="33" rx="16.5" fill="url(#paint1_linear_58_2528)"/>
<path fill-rule="evenodd" clip-rule="evenodd" d="M200.909 57.6559C200.909 65.0377 197.269 67.6427 196.222 68.2392V69.523C198.274 70.249 199.101 72.1853 199.228 72.5123C199.258 72.5745 199.275 72.6441 199.275 72.7176C199.275 72.9765 199.065 73.1868 198.806 73.1868H192.7V73.1848C192.648 73.1848 192.595 73.176 192.543 73.1574C192.301 73.0701 192.174 72.8029 192.261 72.5598C192.263 72.5529 193.043 70.3157 195.285 69.523V68.2392C194.238 67.6427 190.598 65.0377 190.598 57.6559C190.598 57.3971 190.807 57.1868 191.067 57.1868H200.441C200.699 57.1868 200.91 57.3966 200.91 57.6559H200.909ZM201.797 59.1407H203.285C203.544 59.1407 203.753 59.3505 203.753 59.6098C203.753 59.6284 203.752 59.6466 203.75 59.6647C203.731 60.1657 203.443 65.0902 199.535 66.3206C199.609 66.2118 199.681 66.1029 199.75 65.9931C201.042 63.948 201.633 61.5441 201.797 59.1407ZM188.222 59.1407H189.71C189.874 61.5441 190.465 63.948 191.756 65.9931C191.825 66.1029 191.897 66.2118 191.972 66.3206C188.064 65.0902 187.776 60.1657 187.757 59.6647C187.755 59.6466 187.753 59.6284 187.753 59.6098C187.753 59.351 187.963 59.1407 188.222 59.1407Z" fill="#1C1C1C"/>
<path d="M221.05 69.86L224.144 66.052C224.471 65.6507 224.737 65.296 224.942 64.988C225.157 64.6707 225.32 64.386 225.432 64.134C225.553 63.8727 225.637 63.63 225.684 63.406C225.731 63.1727 225.754 62.93 225.754 62.678C225.754 62.118 225.595 61.7073 225.278 61.446C224.961 61.1753 224.545 61.04 224.032 61.04C223.211 61.04 222.473 61.418 221.82 62.174L221.19 61.6C221.311 61.4227 221.465 61.2453 221.652 61.068C221.848 60.8907 222.067 60.732 222.31 60.592C222.562 60.452 222.837 60.34 223.136 60.256C223.444 60.1627 223.775 60.116 224.13 60.116C224.559 60.116 224.937 60.1813 225.264 60.312C225.591 60.4333 225.866 60.606 226.09 60.83C226.314 61.0447 226.482 61.3013 226.594 61.6C226.706 61.8987 226.762 62.2207 226.762 62.566C226.762 62.8553 226.734 63.1447 226.678 63.434C226.631 63.714 226.543 64.0033 226.412 64.302C226.291 64.6007 226.118 64.918 225.894 65.254C225.679 65.59 225.409 65.9587 225.082 66.36L222.842 69.09H226.972V70H221.05V69.86ZM232.863 63.84H235.523C236.167 63.84 236.643 63.98 236.951 64.26C237.259 64.5307 237.413 64.8807 237.413 65.31C237.413 65.6647 237.31 65.954 237.105 66.178C236.909 66.3927 236.638 66.5327 236.293 66.598C236.778 66.6447 237.175 66.7893 237.483 67.032C237.8 67.2747 237.959 67.662 237.959 68.194C237.959 68.754 237.763 69.1973 237.371 69.524C236.979 69.8413 236.386 70 235.593 70H232.863V63.84ZM233.87 67.088V69.09H235.312C235.891 69.09 236.307 69.0107 236.559 68.852C236.82 68.684 236.951 68.4227 236.951 68.068C236.951 67.704 236.82 67.452 236.559 67.312C236.307 67.1627 235.938 67.088 235.453 67.088H233.87ZM233.87 64.75V66.262H235.271C235.644 66.262 235.933 66.2107 236.139 66.108C236.344 65.996 236.447 65.7953 236.447 65.506C236.447 65.226 236.349 65.03 236.153 64.918C235.957 64.806 235.653 64.75 235.243 64.75H233.87ZM240.823 64.75H238.807V63.84H243.847V64.75H241.831V70H240.823V64.75ZM247.582 70.112C247.134 70.112 246.718 70.0327 246.336 69.874C245.953 69.706 245.617 69.4773 245.328 69.188C245.048 68.8987 244.828 68.558 244.67 68.166C244.511 67.774 244.432 67.3493 244.432 66.892C244.432 66.444 244.511 66.0287 244.67 65.646C244.828 65.254 245.048 64.918 245.328 64.638C245.608 64.3487 245.939 64.1247 246.322 63.966C246.714 63.8073 247.134 63.728 247.582 63.728C248.03 63.728 248.445 63.8073 248.828 63.966C249.21 64.1247 249.542 64.344 249.822 64.624C250.102 64.904 250.321 65.24 250.48 65.632C250.638 66.0147 250.718 66.4347 250.718 66.892C250.718 67.3493 250.638 67.774 250.48 68.166C250.321 68.558 250.102 68.8987 249.822 69.188C249.542 69.4773 249.21 69.706 248.828 69.874C248.445 70.0327 248.03 70.112 247.582 70.112ZM247.582 69.202C247.899 69.202 248.188 69.146 248.45 69.034C248.711 68.922 248.935 68.7633 249.122 68.558C249.308 68.3527 249.453 68.11 249.556 67.83C249.658 67.5407 249.71 67.228 249.71 66.892C249.71 66.556 249.658 66.2527 249.556 65.982C249.453 65.702 249.308 65.464 249.122 65.268C248.935 65.0627 248.711 64.9087 248.45 64.806C248.188 64.694 247.899 64.638 247.582 64.638C247.264 64.638 246.975 64.694 246.714 64.806C246.452 64.9087 246.224 65.0627 246.028 65.268C245.841 65.464 245.696 65.702 245.594 65.982C245.491 66.2527 245.44 66.556 245.44 66.892C245.44 67.228 245.491 67.5407 245.594 67.83C245.696 68.11 245.841 68.3527 246.028 68.558C246.224 68.7633 246.452 68.922 246.714 69.034C246.975 69.146 247.264 69.202 247.582 69.202ZM252.359 73.36V63.84H253.311V64.932C253.441 64.624 253.698 64.3487 254.081 64.106C254.463 63.854 254.953 63.728 255.551 63.728C255.961 63.728 256.349 63.8027 256.713 63.952C257.077 64.1013 257.394 64.316 257.665 64.596C257.935 64.8667 258.145 65.2027 258.295 65.604C258.453 65.996 258.533 66.4347 258.533 66.92C258.533 67.4147 258.449 67.8627 258.281 68.264C258.122 68.656 257.907 68.992 257.637 69.272C257.366 69.5427 257.049 69.7527 256.685 69.902C256.321 70.042 255.943 70.112 255.551 70.112C255.047 70.112 254.603 70.0047 254.221 69.79C253.838 69.5753 253.553 69.3 253.367 68.964V73.36H252.359ZM255.425 64.666C255.098 64.666 254.809 64.7267 254.557 64.848C254.305 64.96 254.09 65.114 253.913 65.31C253.735 65.4967 253.6 65.716 253.507 65.968C253.423 66.2107 253.376 66.4673 253.367 66.738V66.962C253.367 67.2327 253.413 67.5033 253.507 67.774C253.6 68.0353 253.731 68.2733 253.899 68.488C254.076 68.6933 254.295 68.8613 254.557 68.992C254.818 69.1133 255.117 69.174 255.453 69.174C256.059 69.174 256.549 68.9687 256.923 68.558C257.296 68.138 257.483 67.5873 257.483 66.906C257.483 66.5513 257.431 66.234 257.329 65.954C257.226 65.674 257.081 65.4407 256.895 65.254C256.708 65.058 256.489 64.9133 256.237 64.82C255.985 64.7173 255.714 64.666 255.425 64.666ZM262.559 65.926C263.381 65.926 264.001 66.0847 264.421 66.402C264.841 66.7193 265.051 67.2327 265.051 67.942C265.051 68.6327 264.841 69.1507 264.421 69.496C264.001 69.832 263.334 70 262.419 70H260.165V63.84H261.173V65.926H262.559ZM265.919 63.84H266.927V70H265.919V63.84ZM262.265 69.09C262.517 69.09 262.751 69.076 262.965 69.048C263.189 69.02 263.381 68.9687 263.539 68.894C263.698 68.81 263.819 68.6933 263.903 68.544C263.997 68.3947 264.043 68.194 264.043 67.942C264.043 67.5127 263.899 67.2233 263.609 67.074C263.32 66.9153 262.909 66.836 262.377 66.836H261.173V69.09H262.265ZM268.199 69.86L270.327 66.85L268.353 63.98V63.84H269.501L271.013 66.122L272.581 63.84H273.617V63.98L271.629 66.78L273.785 69.86V70H272.651L270.985 67.564L269.277 70H268.199V69.86ZM279.279 63.84H279.923L281.967 68.264L283.969 63.84H284.613L285.691 70H284.739L284.025 65.73L282.037 70H281.799L279.839 65.814L279.125 70H278.201L279.279 63.84ZM289.87 70.112C289.413 70.112 288.988 70.0373 288.596 69.888C288.213 69.7387 287.877 69.5287 287.588 69.258C287.308 68.978 287.084 68.642 286.916 68.25C286.757 67.858 286.678 67.4147 286.678 66.92C286.678 66.4067 286.762 65.954 286.93 65.562C287.107 65.1607 287.341 64.8247 287.63 64.554C287.929 64.2833 288.265 64.078 288.638 63.938C289.021 63.798 289.417 63.728 289.828 63.728C290.304 63.728 290.724 63.8167 291.088 63.994C291.461 64.162 291.774 64.3907 292.026 64.68C292.278 64.9693 292.469 65.296 292.6 65.66C292.731 66.024 292.796 66.3927 292.796 66.766V67.116H287.686C287.714 67.4427 287.789 67.7367 287.91 67.998C288.031 68.25 288.19 68.4693 288.386 68.656C288.591 68.8333 288.825 68.9687 289.086 69.062C289.347 69.1553 289.627 69.202 289.926 69.202C290.318 69.202 290.682 69.1273 291.018 68.978C291.363 68.8193 291.639 68.6047 291.844 68.334L292.502 68.936C292.203 69.3373 291.816 69.636 291.34 69.832C290.873 70.0187 290.383 70.112 289.87 70.112ZM289.73 64.638C289.235 64.638 288.811 64.7827 288.456 65.072C288.101 65.3613 287.868 65.758 287.756 66.262H291.746C291.653 65.786 291.419 65.3987 291.046 65.1C290.682 64.792 290.243 64.638 289.73 64.638ZM297.171 70.112C296.676 70.112 296.233 70.0327 295.841 69.874C295.449 69.706 295.113 69.4773 294.833 69.188C294.562 68.8987 294.352 68.558 294.203 68.166C294.053 67.774 293.979 67.3493 293.979 66.892C293.979 66.3973 294.063 65.954 294.231 65.562C294.399 65.17 294.623 64.8387 294.903 64.568C295.192 64.2973 295.528 64.092 295.911 63.952C296.303 63.8027 296.723 63.728 297.171 63.728C297.647 63.728 298.09 63.8073 298.501 63.966C298.911 64.1247 299.257 64.3487 299.537 64.638L298.949 65.422C298.743 65.1793 298.487 64.988 298.179 64.848C297.871 64.708 297.539 64.638 297.185 64.638C296.886 64.638 296.601 64.6893 296.331 64.792C296.069 64.8947 295.836 65.044 295.631 65.24C295.435 65.4267 295.276 65.66 295.155 65.94C295.043 66.2107 294.987 66.5233 294.987 66.878C294.987 67.2233 295.043 67.5407 295.155 67.83C295.267 68.11 295.425 68.3527 295.631 68.558C295.836 68.7633 296.074 68.922 296.345 69.034C296.625 69.146 296.928 69.202 297.255 69.202C297.637 69.202 297.978 69.132 298.277 68.992C298.575 68.8427 298.818 68.6513 299.005 68.418L299.635 69.048C299.373 69.356 299.037 69.6127 298.627 69.818C298.216 70.014 297.731 70.112 297.171 70.112ZM302.401 64.75H300.385V63.84H305.425V64.75H303.409V70H302.401V64.75ZM308.992 70.112C308.6 70.112 308.222 70.042 307.858 69.902C307.494 69.7527 307.177 69.5427 306.906 69.272C306.635 68.992 306.416 68.656 306.248 68.264C306.089 67.8627 306.01 67.4147 306.01 66.92C306.01 66.4347 306.085 65.996 306.234 65.604C306.393 65.2027 306.607 64.8667 306.878 64.596C307.149 64.316 307.466 64.1013 307.83 63.952C308.194 63.8027 308.581 63.728 308.992 63.728C309.58 63.728 310.065 63.854 310.448 64.106C310.84 64.3487 311.101 64.624 311.232 64.932V63.84H312.184V70H311.232V68.852C311.055 69.216 310.77 69.5193 310.378 69.762C309.986 69.9953 309.524 70.112 308.992 70.112ZM309.09 69.174C309.426 69.174 309.725 69.1133 309.986 68.992C310.247 68.8613 310.462 68.6933 310.63 68.488C310.807 68.2733 310.943 68.0353 311.036 67.774C311.129 67.5033 311.176 67.2327 311.176 66.962V66.738C311.167 66.4673 311.115 66.2107 311.022 65.968C310.929 65.716 310.793 65.4967 310.616 65.31C310.448 65.114 310.238 64.96 309.986 64.848C309.734 64.7267 309.445 64.666 309.118 64.666C308.819 64.666 308.544 64.7173 308.292 64.82C308.049 64.9133 307.835 65.058 307.648 65.254C307.461 65.4407 307.317 65.674 307.214 65.954C307.111 66.234 307.06 66.5513 307.06 66.906C307.06 67.5873 307.247 68.138 307.62 68.558C307.993 68.9687 308.483 69.174 309.09 69.174Z" fill="#1C1C1C"/>
<defs>
<linearGradient id="paint0_linear_58_2528" x1="132" y1="52.2283" x2="114.402" y2="111.603" gradientUnits="userSpaceOnUse">
<stop stop-color="#FFE6B6"/>
<stop offset="1" stop-color="#A88D00"/>
</linearGradient>
<linearGradient id="paint1_linear_58_2528" x1="305.692" y1="52.2283" x2="288.282" y2="111.724" gradientUnits="userSpaceOnUse">
<stop stop-color="#DEDEDE"/>
<stop offset="1" stop-color="#999999"/>
</linearGradient>
</defs>
</svg>
